<svg xmlns="http://www.w3.org/2000/svg" width="327.68" height="327.68" viewBox="0 0 86.699 86.699" shape-rendering="geometricPrecision" text-rendering="geometricPrecision" image-rendering="optimizeQuality" fill-rule="evenodd" clip-rule="evenodd"><defs><style>.fil2{fill:#000;fill-opacity:.101961}</style><linearGradient id="id0" gradientUnits="userSpaceOnUse" x1="43.349" y1="86.699" x2="43.349"><stop offset="0" stop-color="#f1294b"/><stop offset="1" stop-color="#ff5c3c"/></linearGradient></defs><g id="Layer_x0020_1"><g id="_441817384"><rect id="_424955272" width="86.699" height="86.699" rx="17.447" ry="17.447" fill="url(#id0)"/><path id="_424955056" d="M29.13 57.57a4.594 4.594 0 1 1-6.498 6.496 4.594 4.594 0 0 1 6.497-6.497zm34.936-34.938a4.607 4.607 0 0 1 0 6.497l-7.514 7.514 6.716 24.196.373 1.341c.395 1.23.558 1.927.153 3.158l-1.526 3.456c-.509 1.149-.816 1.011-1.303.037l-1.898-3.791L48.754 44.44 37.968 55.228a4.607 4.607 0 0 1-6.497 0 4.607 4.607 0 0 1 0-6.497l10.786-10.787L21.66 27.632l-3.791-1.898c-.975-.488-1.112-.795.037-1.303l3.455-1.526c1.232-.406 1.929-.243 3.158.153l1.342.373 24.195 6.716 7.514-7.515a4.607 4.607 0 0 1 6.497 0z" fill="#fff"/><path id="_441848040" class="fil2" d="M50.055 30.147l-10.078 6.655 2.28 1.142z"/><path id="_424953952" class="fil2" d="M56.552 36.644l-6.655 10.078-1.143-2.28z"/></g></g></svg>