<svg xmlns="http://www.w3.org/2000/svg" width="328.436" height="328.436" viewBox="0 0 86.899 86.899" shape-rendering="geometricPrecision" text-rendering="geometricPrecision" image-rendering="optimizeQuality" fill-rule="evenodd" clip-rule="evenodd"><defs><style>.fil2{fill:#000;fill-opacity:.101961}</style><linearGradient id="id0" gradientUnits="userSpaceOnUse" x1="22.441" y1="64.457" x2="64.457" y2="22.441"><stop offset="0" stop-color="#f1294b"/><stop offset="1" stop-color="#ff5c3c"/></linearGradient></defs><g id="Layer_x0020_1"><g id="_424954384"><rect id="_424954768" x=".1" y=".1" width="86.699" height="86.699" rx="17.447" ry="17.447" fill="#fff" stroke="#fff" stroke-width=".2"/><path id="_441845232" d="M29.23 57.67a4.594 4.594 0 1 0-6.498 6.496 4.594 4.594 0 0 0 6.497-6.497zm34.936-34.937a4.607 4.607 0 0 0-6.497 0l-7.514 7.514L25.96 23.53l-1.342-.373c-1.23-.396-1.926-.558-3.158-.153l-3.455 1.526c-1.15.508-1.012.815-.037 1.303l3.79 1.898 20.6 10.312L31.57 48.831a4.607 4.607 0 0 0 0 6.497 4.607 4.607 0 0 0 6.497 0l10.787-10.787L59.167 65.14l1.898 3.79c.487.975.794 1.113 1.303-.036l1.526-3.456c.405-1.231.242-1.928-.153-3.158l-.373-1.341-6.716-24.195 7.514-7.515a4.607 4.607 0 0 0 0-6.496z" fill="url(#id0)"/><path id="_424955704" class="fil2" d="M56.652 36.743l-6.656 10.079-1.142-2.28z"/><path id="_424955080" class="fil2" d="M50.155 30.247l-10.078 6.655 2.28 1.142z"/></g></g></svg>