<svg xmlns="http://www.w3.org/2000/svg" width="874.239" height="874.239" viewBox="0 0 231.309 231.309" shape-rendering="geometricPrecision" text-rendering="geometricPrecision" image-rendering="optimizeQuality" fill-rule="evenodd" clip-rule="evenodd"><defs><style>.fil2{fill:#000;fill-opacity:.101961}</style><linearGradient id="id0" gradientUnits="userSpaceOnUse" x1="115.693" y1="98.926" x2="115.693" y2="132.307"><stop offset="0" stop-color="#ff5c3c"/><stop offset="1" stop-color="#f1294b"/></linearGradient></defs><g id="Layer_x0020_1"><path fill="#fff" d="M0 0h231.309v231.309H0z"/><g id="_441850056"><path id="_441845232" d="M107.415 123.894a3.124 3.124 0 1 0-4.417 4.418 3.124 3.124 0 0 0 4.417-4.418zm23.754-23.753a3.132 3.132 0 0 0-4.418 0l-5.109 5.108-16.45-4.566-.912-.253c-.836-.27-1.31-.38-2.147-.104l-2.35 1.037c-.78.346-.687.555-.025.886l2.578 1.29 14.005 7.012-7.334 7.334a3.133 3.133 0 0 0 0 4.417 3.132 3.132 0 0 0 4.417 0l7.334-7.334 7.012 14.005 1.29 2.578c.332.662.54.756.886-.026l1.038-2.349c.275-.837.164-1.311-.105-2.147l-.253-.912-4.566-16.45 5.109-5.11a3.132 3.132 0 0 0 0-4.416z" fill="url(#id0)"/><path id="_424955704" class="fil2" d="M126.06 109.667l-4.525 6.852-.777-1.551z"/><path id="_424955080" class="fil2" d="M121.643 105.249l-6.853 4.525 1.551.777z"/></g></g></svg>