<svg xmlns="http://www.w3.org/2000/svg" width="874.239" height="874.239" viewBox="0 0 231.309 231.309" shape-rendering="geometricPrecision" text-rendering="geometricPrecision" image-rendering="optimizeQuality" fill-rule="evenodd" clip-rule="evenodd"><defs><style>.fil2{fill:#000;fill-opacity:.101961}</style><linearGradient id="id0" gradientUnits="userSpaceOnUse" x1="115.655" y1="32.383" x2="115.655" y2="198.926"><stop offset="0" stop-color="#ff5c3c"/><stop offset="1" stop-color="#f1294b"/></linearGradient></defs><g id="Layer_x0020_1"><path fill="url(#id0)" d="M0 0h231.309v231.309H0z"/><g id="_441862848"><path id="_424955056" d="M107.415 123.894a3.124 3.124 0 1 1-4.417 4.417 3.124 3.124 0 0 1 4.417-4.417zm23.754-23.754a3.133 3.133 0 0 1 0 4.418l-5.11 5.108 4.567 16.45.253.913c.27.836.38 1.31.105 2.147l-1.038 2.35c-.346.78-.554.687-.886.025l-1.29-2.578-7.012-14.005-7.334 7.334a3.132 3.132 0 0 1-4.417 0 3.133 3.133 0 0 1 0-4.417l7.334-7.334-14.005-7.012-2.578-1.29c-.662-.332-.756-.54.026-.886l2.349-1.038c.837-.275 1.311-.164 2.147.105l.912.253 16.45 4.566 5.11-5.109a3.132 3.132 0 0 1 4.417 0z" fill="#fff"/><path id="_441848040" class="fil2" d="M121.643 105.249l-6.853 4.526 1.551.776z"/><path id="_424953952" class="fil2" d="M126.06 109.667l-4.525 6.852-.777-1.551z"/></g></g></svg>